#define rss_width 16
#define rss_height 16
static unsigned char rss_bits[] = {
   0x00, 0x00, 0x00, 0x00, 0x18, 0x00, 0x30, 0x00, 0x60, 0x00, 0xc8, 0x00,
   0x98, 0x01, 0x30, 0x03, 0x60, 0x06, 0xc0, 0x0c, 0x88, 0x19, 0x18, 0x13,
   0x38, 0x02, 0x00, 0x00, 0x00, 0x00, 0x00, 0x00 };
